<svg id="svg" xmlns="http://www.w3.org/2000/svg" viewBox="0 0 251.4 151.8"><style>.st0{fill:#8fbeff;stroke:#0069ff;stroke-width:2;stroke-linejoin:round}.st1{fill:#d7e9ff;stroke:#d7e9ff;stroke-width:1.6;stroke-miterlimit:10}.st2,.st3,.st4,.st5{fill:#d7e9ff;stroke:#0069ff;stroke-width:2;stroke-linejoin:round}.st3,.st4,.st5{fill:none;stroke:#fff;stroke-width:1.6}.st4,.st5{fill:#0069ff;stroke:#0069ff;stroke-width:2}.st5{fill:#d7e9ff;stroke:#1f8ced}.st10,.st6,.st7,.st8,.st9{fill:none;stroke:#4894ff;stroke-width:1.6;stroke-linejoin:round}.st10,.st7,.st8,.st9{stroke:#1f8ced}.st10,.st8,.st9{fill:#8fbeff;stroke:#4894ff}.st10,.st9{fill:#fff;stroke:#8fbeff;stroke-width:2}.st10{fill:none;stroke:#0069ff}.st11,.st12{stroke:#1f8ced}.st11{stroke-width:2;stroke-linejoin:round;fill:#1f8ced}.st12{fill:none}.st12,.st13,.st14{stroke-width:2;stroke-linejoin:round}.st13{stroke-linecap:round;fill:none;stroke:#0069ff}.st14{fill:#4894ff;stroke:#4894ff}.st15{fill:#fff}.st16,.st17,.st18{fill:#4894ff;stroke:#4894ff;stroke-width:1.6;stroke-linejoin:round}.st17,.st18{fill:#8fbeff;stroke:#8fbeff}.st18{fill:#d7e9ff;stroke:#d7e9ff}</style><path class="st0" d="M167.6 67.9c-16.6 0-30 13.4-30 30v52.9h60V97.9c0-16.6-13.4-30-30-30z"/><path class="st1" d="M1 150.8c22.7 0 29.9-8.4 49.7-8.4 37.3 0 54.6 8.4 80.5 8.4H1z"/><path class="st2" d="M167.6 67.9H96.7c-16.6 0-30 13.4-30 30h70.9c0-16.6 13.5-30 30-30z"/><path class="st3" d="M68.4 87.9H192M72.4 77.9h114.8"/><path class="st4" d="M101.3 67.9h-4.6c-16.6 0-30 13.4-30 30h4.6c0-16.6 13.5-30 30-30z"/><path class="st5" d="M66.7 97.9H119v52.9H66.7z"/><path class="st6" d="M119 119H66.7M119 129.6H66.7"/><path class="st7" d="M119 140.2H66.7"/><path class="st8" d="M64.8 97.9H121v10.6H64.8z"/><path class="st9" d="M167.6 63.2h-13.9c-19.2 0-34.7 15.5-34.7 34.7v53h14v-53c-.1-19.2 15.4-34.7 34.6-34.7zM96.7 63.2h-14C63.5 63.2 48 78.7 48 97.9v53h14v-53c0-19.2 15.5-34.7 34.7-34.7z"/><path class="st0" d="M66.7 97.9c0-16.6 13.4-30 30-30h17.4c-16.6-9.6-37.8-4-47.4 12.6-3 5.3-4.7 11.3-4.7 17.4v52.9h4.7V97.9z"/><path class="st4" d="M66.7 97.9h4.6v39h-4.6z"/><path class="st10" d="M197.6 119h-64.9"/><path class="st7" d="M197.6 129.6h-64.9M197.6 140.2h-64.9"/><path class="st4" d="M71.4 122.9c0 7.7 6.3 14 14 14h-14v-14zM167.6 67.9c-1 0-2 .1-2.9.1 15.4 1.5 27.1 14.4 27.1 29.8v52.9h5.9V97.9c-.1-16.6-13.5-30-30.1-30z"/><path class="st0" d="M167.6 63.2c-19.2 0-34.7 15.5-34.7 34.7v53h69.4v-53c0-19.2-15.5-34.7-34.7-34.7zm30 87.6h-60V97.9c-.3-16.6 12.9-30.2 29.4-30.6 16.6-.3 30.2 12.9 30.6 29.4v54.1z"/><path class="st9" d="M48.1 136.9h84.8v13.9H48.1z"/><path class="st11" d="M133 136.9h69.4v13.9H133z"/><path class="st1" d="M84.3 150.8c22.7 0 43.6-26.5 80.9-26.5s59.3 26.5 85.2 26.5H84.3z"/><path class="st2" d="M137.6 97.9h54.1v10.6h-54.1z"/><path class="st12" d="M89.3 122.6h3.6"/><path class="st13" d="M214.8 150.8h35.6M1 150.8h206.4"/><path class="st14" d="M100.4 119l-7.5 3.6-7.6-3.6V97.9h15.1z"/><path class="st15" d="M96.9 119l-7.6 3.6-7.5-3.6V97.9h15.1z"/><path class="st6" d="M96.9 119l-7.6 3.6-7.5-3.6V97.9h15.1z"/><circle class="st4" cx="89.3" cy="106.3" r="2"/><path class="st4" d="M89.9 113.8h-1.1l.5-4.4z"/><path class="st0" d="M155.2 103.2h19v5.3h-19z"/><circle class="st16" cx="129.8" cy="143.8" r="1"/><circle class="st16" cx="175.2" cy="142.8" r="1"/><circle class="st17" cx="156.2" cy="131.2" r="1"/><circle class="st17" cx="200.1" cy="140.2" r="1"/><path class="st18" d="M78.3 34.4c-2.4 0-4.3-1.9-4.3-4.3 0 2.4-1.9 4.3-4.3 4.3 2.4 0 4.3 1.9 4.3 4.3 0-2.3 1.9-4.3 4.3-4.3zM127.5 5.1c-2.4 0-4.3-1.9-4.3-4.3 0 2.4-1.9 4.3-4.3 4.3 2.4 0 4.3 1.9 4.3 4.3 0-2.4 1.9-4.3 4.3-4.3z"/><circle class="st17" cx="133.8" cy="28.4" r=".9"/><circle class="st17" cx="205.1" cy="53.9" r=".9"/><circle class="st17" cx="173.8" cy="15.4" r=".9"/><circle class="st17" cx="48.2" cy="58.3" r=".9"/><circle class="st16" cx="144.8" cy="38.9" r=".9"/></svg>